<svg xmlns="http://www.w3.org/2000/svg" xmlns:xlink="http://www.w3.org/1999/xlink" width="1024" zoomAndPan="magnify" viewBox="0 0 768 767.999994" height="1024" preserveAspectRatio="xMidYMid meet" version="1.0"><defs><clipPath id="8da5486435"><path d="M 12.085938 12.085938 L 669 12.085938 L 669 546 L 12.085938 546 Z M 12.085938 12.085938 " clip-rule="nonzero"/></clipPath></defs><path fill="#fabc04" d="M 500.589844 339.042969 L 495.230469 339.042969 C 495.230469 324.851562 492.449219 311.078125 486.960938 298.101562 C 481.664062 285.578125 474.082031 274.328125 464.425781 264.675781 C 454.773438 255.019531 443.527344 247.441406 431.003906 242.140625 C 418.027344 236.652344 404.253906 233.871094 390.0625 233.871094 C 375.871094 233.871094 362.09375 236.65625 349.117188 242.140625 C 336.59375 247.441406 325.347656 255.019531 315.691406 264.675781 C 306.039062 274.328125 298.457031 285.574219 293.160156 298.101562 C 287.671875 311.078125 284.890625 324.851562 284.890625 339.042969 L 279.53125 339.042969 C 261.957031 339.042969 247.710938 353.289062 247.710938 370.863281 L 247.710938 511.304688 C 247.710938 528.878906 261.957031 543.125 279.53125 543.125 L 500.589844 543.125 C 518.164062 543.125 532.410156 528.875 532.410156 511.304688 L 532.410156 370.863281 C 532.410156 353.289062 518.164062 339.042969 500.589844 339.042969 Z M 401.628906 442.324219 L 401.628906 465.039062 C 401.628906 471.429688 396.449219 476.609375 390.058594 476.609375 C 383.671875 476.609375 378.492188 471.429688 378.492188 465.039062 L 378.492188 442.324219 C 367.90625 437.824219 360.484375 427.324219 360.484375 415.09375 C 360.484375 412.339844 360.859375 409.675781 361.5625 407.148438 C 365.03125 394.671875 376.476562 385.515625 390.058594 385.515625 C 403.644531 385.515625 415.085938 394.671875 418.558594 407.148438 C 419.261719 409.675781 419.636719 412.339844 419.636719 415.09375 C 419.636719 427.324219 412.21875 437.820312 401.628906 442.324219 Z M 316.242188 339.042969 C 316.242188 298.335938 349.355469 265.222656 390.0625 265.222656 C 430.765625 265.222656 463.878906 298.335938 463.878906 339.042969 Z M 316.242188 339.042969 " fill-opacity="1" fill-rule="nonzero"/><path fill="#fabc04" d="M 619.105469 197.332031 C 578.085938 197.457031 537.289062 191.804688 497.878906 180.523438 C 459.972656 169.675781 423.695312 153.710938 390.054688 133.082031 L 384.300781 129.554688 L 378.625 133.210938 L 377.972656 133.625 C 341.574219 156.921875 301.964844 174.160156 260.242188 184.867188 C 223.078125 194.398438 184.746094 198.597656 146.300781 197.335938 L 136.601562 197.023438 L 135.304688 206.640625 C 131.269531 236.5625 129.410156 266.328125 129.769531 295.105469 C 130.316406 338.347656 135.820312 379.765625 146.132812 418.21875 C 158.386719 463.945312 177.570312 505.828125 203.136719 542.695312 C 217.664062 563.644531 234.507812 583.3125 253.195312 601.148438 C 273.269531 620.308594 296 637.859375 320.757812 653.304688 C 338.921875 664.640625 358.59375 675.109375 379.230469 684.414062 C 379.6875 684.621094 380.144531 684.824219 380.601562 685.03125 L 384.566406 686.804688 L 388.648438 685.324219 C 410.222656 677.492188 430.738281 668.277344 449.625 657.929688 C 475.84375 643.558594 499.742188 626.5625 520.652344 607.414062 C 540.011719 589.683594 557.265625 569.6875 571.9375 547.988281 C 597.433594 510.273438 615.847656 466.460938 626.667969 417.773438 C 640.984375 353.355469 642.046875 280.234375 629.734375 206.3125 L 628.234375 197.308594 Z M 605.695312 413.105469 C 605.542969 413.816406 605.382812 414.515625 605.21875 415.222656 L 542.164062 415.222656 L 542.164062 517.242188 C 542.164062 536.027344 526.9375 551.253906 508.152344 551.253906 L 389.300781 551.253906 L 389.300781 662.144531 C 388.007812 662.644531 386.707031 663.136719 385.402344 663.625 C 366.609375 655.023438 348.699219 645.425781 332.128906 635.085938 C 248.71875 583.027344 193.371094 509.070312 167.578125 415.222656 L 237.828125 415.222656 L 237.828125 367.109375 C 237.964844 364.066406 238.832031 352.839844 247.792969 343.058594 C 256.484375 333.566406 267.164062 331.578125 270.25 331.117188 C 272.699219 330.976562 275.148438 330.839844 277.597656 330.699219 C 277.789062 321.113281 279.171875 313.078125 280.597656 307.070312 C 281.613281 302.785156 283.363281 296.542969 286.414062 289.328125 C 292.078125 275.941406 300.179688 263.921875 310.5 253.597656 C 320.824219 243.277344 332.839844 235.175781 346.234375 229.511719 C 359.929688 223.71875 374.457031 220.75 389.417969 220.671875 L 389.417969 157.699219 C 421.699219 176.316406 456.136719 190.925781 491.96875 201.179688 C 530.371094 212.171875 570.019531 218.074219 609.964844 218.75 C 614.503906 248.691406 616.773438 278.40625 616.773438 307.332031 C 616.769531 344.269531 613.070312 379.925781 605.695312 413.105469 Z M 605.695312 413.105469 " fill-opacity="1" fill-rule="nonzero"/><path fill="#fabc04" d="M 330.527344 331.800781 L 389.417969 331.800781 L 389.417969 278.839844 C 356.90625 279.046875 330.527344 302.726562 330.527344 331.800781 Z M 330.527344 331.800781 " fill-opacity="1" fill-rule="nonzero"/><g clip-path="url(#8da5486435)"><path fill="#fabc04" d="M 72.429688 527.445312 C 52.238281 483.773438 40.964844 435.175781 40.964844 383.984375 C 40.964844 194.839844 194.839844 40.964844 383.984375 40.964844 C 426.933594 40.964844 464.46875 50.25 476.171875 53.542969 C 511.339844 63.449219 541.285156 78.105469 566.132812 93.890625 C 562.988281 100.699219 561.234375 108.277344 561.234375 116.269531 C 561.234375 145.78125 585.160156 169.710938 614.675781 169.710938 C 625.613281 169.710938 635.78125 166.421875 644.25 160.785156 C 652.511719 155.285156 659.152344 147.550781 663.3125 138.4375 C 666.398438 131.683594 668.117188 124.175781 668.117188 116.265625 C 668.117188 86.75 644.191406 62.824219 614.675781 62.824219 C 603.953125 62.824219 593.964844 65.984375 585.597656 71.421875 C 567.558594 59.765625 548.472656 49.648438 528.753906 41.308594 C 482.894531 21.910156 434.1875 12.078125 383.984375 12.078125 C 333.785156 12.078125 285.078125 21.914062 239.214844 41.308594 C 217.175781 50.628906 195.917969 62.167969 176.035156 75.601562 C 156.347656 88.902344 137.828125 104.179688 121.003906 121.003906 C 104.179688 137.832031 88.902344 156.347656 75.601562 176.035156 C 62.167969 195.917969 50.628906 217.175781 41.308594 239.214844 C 21.910156 285.078125 12.078125 333.785156 12.078125 383.984375 C 12.078125 434.1875 21.914062 482.894531 41.308594 528.753906 C 42.976562 532.703125 44.71875 536.617188 46.527344 540.507812 C 50.8125 545.457031 57.644531 547.207031 63.414062 544.945312 C 70.054688 542.34375 74.027344 534.917969 72.429688 527.445312 Z M 72.429688 527.445312 " fill-opacity="1" fill-rule="nonzero"/></g><path fill="#fabc04" d="M 726.664062 239.214844 C 719.621094 222.5625 711.308594 206.355469 701.871094 190.851562 C 696.71875 184.304688 687.367188 183.179688 681.253906 187.835938 C 675.816406 191.980469 674.023438 199.882812 677.375 206.429688 C 689.550781 226.453125 704.363281 255.460938 714.644531 292.59375 C 714.644531 292.59375 727.011719 337.726562 727.011719 383.984375 C 727.011719 573.128906 573.132812 727.007812 383.988281 727.007812 C 341.425781 727.007812 307.058594 718.769531 291.75 714.414062 C 237.5625 698.984375 194.921875 671.828125 162.980469 644.523438 C 165.519531 638.300781 166.917969 631.492188 166.917969 624.355469 C 166.917969 594.839844 142.992188 570.914062 113.476562 570.914062 C 108.09375 570.914062 102.894531 571.714844 97.996094 573.191406 C 97.996094 573.191406 97.992188 573.195312 97.992188 573.195312 C 76.03125 579.835938 60.039062 600.226562 60.039062 624.355469 C 60.039062 653.871094 83.964844 677.796875 113.480469 677.796875 C 124.863281 677.796875 135.410156 674.234375 144.078125 668.171875 C 154.300781 676.808594 164.988281 684.902344 176.039062 692.371094 C 195.921875 705.804688 217.175781 717.339844 239.21875 726.664062 C 285.078125 746.0625 333.785156 755.894531 383.988281 755.894531 C 434.1875 755.894531 482.894531 746.058594 528.757812 726.664062 C 550.800781 717.339844 572.054688 705.804688 591.9375 692.371094 C 611.628906 679.066406 630.144531 663.792969 646.96875 646.964844 C 663.796875 630.140625 679.070312 611.625 692.375 591.933594 C 705.808594 572.050781 717.34375 550.796875 726.667969 528.753906 C 746.0625 482.894531 755.898438 434.1875 755.898438 383.984375 C 755.894531 333.785156 746.0625 285.078125 726.664062 239.214844 Z M 726.664062 239.214844 " fill-opacity="1" fill-rule="nonzero"/></svg>