<svg xmlns="http://www.w3.org/2000/svg" xmlns:xlink="http://www.w3.org/1999/xlink" width="1024" zoomAndPan="magnify" viewBox="0 0 768 767.999994" height="1024" preserveAspectRatio="xMidYMid meet" version="1.0"><defs><clipPath id="9acfcfba72"><path d="M 76.800781 149 L 691.046875 149 L 691.046875 619 L 76.800781 619 Z M 76.800781 149 " clip-rule="nonzero"/></clipPath></defs><g clip-path="url(#9acfcfba72)"><path fill="#5865f2" d="M 596.789062 188.4375 C 557.636719 170.457031 515.65625 157.210938 471.757812 149.625 C 470.960938 149.480469 470.160156 149.84375 469.75 150.578125 C 464.351562 160.1875 458.371094 172.726562 454.183594 182.582031 C 406.96875 175.507812 360 175.507812 313.753906 182.582031 C 309.566406 172.507812 303.367188 160.1875 297.945312 150.578125 C 297.535156 149.871094 296.734375 149.503906 295.933594 149.625 C 252.0625 157.1875 210.082031 170.433594 170.90625 188.4375 C 170.570312 188.585938 170.277344 188.828125 170.085938 189.144531 C 90.453125 308.222656 68.640625 424.367188 79.339844 539.078125 C 79.386719 539.636719 79.703125 540.175781 80.140625 540.515625 C 132.679688 579.132812 183.570312 602.578125 233.519531 618.117188 C 234.316406 618.363281 235.164062 618.070312 235.671875 617.410156 C 247.488281 601.261719 258.019531 584.234375 267.050781 566.324219 C 267.585938 565.277344 267.074219 564.03125 265.984375 563.617188 C 249.28125 557.273438 233.375 549.542969 218.070312 540.761719 C 216.859375 540.050781 216.765625 538.320312 217.878906 537.488281 C 221.097656 535.074219 224.320312 532.5625 227.394531 530.023438 C 227.949219 529.5625 228.726562 529.464844 229.378906 529.757812 C 329.902344 575.695312 438.734375 575.695312 538.074219 529.757812 C 538.726562 529.441406 539.503906 529.539062 540.082031 530 C 543.160156 532.539062 546.378906 535.074219 549.625 537.488281 C 550.738281 538.320312 550.664062 540.050781 549.453125 540.761719 C 534.152344 549.710938 518.246094 557.273438 501.515625 563.59375 C 500.425781 564.007812 499.941406 565.277344 500.472656 566.324219 C 509.699219 584.207031 520.230469 601.234375 531.828125 617.386719 C 532.3125 618.070312 533.183594 618.363281 533.984375 618.117188 C 584.171875 602.578125 635.066406 579.132812 687.605469 540.515625 C 688.0625 540.175781 688.355469 539.660156 688.402344 539.101562 C 701.210938 406.484375 666.953125 291.289062 597.585938 189.171875 C 597.417969 188.828125 597.125 188.585938 596.789062 188.4375 Z M 282.0625 469.230469 C 251.796875 469.230469 226.859375 441.421875 226.859375 407.265625 C 226.859375 373.113281 251.3125 345.300781 282.0625 345.300781 C 313.054688 345.300781 337.75 373.355469 337.265625 407.265625 C 337.265625 441.421875 312.8125 469.230469 282.0625 469.230469 Z M 486.164062 469.230469 C 455.902344 469.230469 430.964844 441.421875 430.964844 407.265625 C 430.964844 373.113281 455.417969 345.300781 486.164062 345.300781 C 517.15625 345.300781 541.851562 373.355469 541.367188 407.265625 C 541.367188 441.421875 517.15625 469.230469 486.164062 469.230469 Z M 486.164062 469.230469 " fill-opacity="1" fill-rule="nonzero"/></g></svg>