<svg xmlns="http://www.w3.org/2000/svg" xmlns:xlink="http://www.w3.org/1999/xlink" width="1024" zoomAndPan="magnify" viewBox="0 0 768 767.999994" height="1024" preserveAspectRatio="xMidYMid meet" version="1.0"><defs><clipPath id="da51709715"><path d="M 17.277344 24.761719 L 749 24.761719 L 749 744.011719 L 17.277344 744.011719 Z M 17.277344 24.761719 " clip-rule="nonzero"/></clipPath></defs><g clip-path="url(#da51709715)"><path fill="#ffffff" d="M 383.308594 24.761719 C 180.902344 24.761719 17.277344 189.589844 17.277344 393.503906 C 17.277344 556.503906 122.117188 694.480469 267.558594 743.316406 C 285.742188 746.984375 292.40625 735.378906 292.40625 725.617188 C 292.40625 717.070312 291.804688 687.769531 291.804688 657.238281 C 189.984375 679.21875 168.78125 613.28125 168.78125 613.28125 C 152.417969 570.546875 128.171875 559.5625 128.171875 559.5625 C 94.847656 536.972656 130.601562 536.972656 130.601562 536.972656 C 167.566406 539.414062 186.964844 574.824219 186.964844 574.824219 C 219.683594 630.984375 272.40625 615.117188 293.617188 605.347656 C 296.644531 581.535156 306.347656 565.054688 316.648438 555.898438 C 235.441406 547.351562 149.996094 515.605469 149.996094 373.964844 C 149.996094 333.671875 164.53125 300.707031 187.5625 275.070312 C 183.929688 265.914062 171.199219 228.054688 191.207031 177.386719 C 191.207031 177.386719 222.113281 167.617188 291.796875 215.238281 C 321.761719 207.128906 352.265625 203.058594 383.308594 203.023438 C 414.214844 203.023438 445.71875 207.300781 474.8125 215.238281 C 544.507812 167.617188 575.414062 177.386719 575.414062 177.386719 C 595.417969 228.054688 582.679688 265.914062 579.046875 275.070312 C 602.683594 300.707031 616.621094 333.671875 616.621094 373.964844 C 616.621094 515.605469 531.179688 546.734375 449.363281 555.898438 C 462.699219 567.496094 474.207031 589.46875 474.207031 624.273438 C 474.207031 673.71875 473.605469 713.40625 473.605469 725.609375 C 473.605469 735.378906 480.273438 746.984375 498.453125 743.324219 C 643.894531 694.472656 748.734375 556.503906 748.734375 393.503906 C 749.332031 189.589844 585.109375 24.761719 383.308594 24.761719 Z M 383.308594 24.761719 " fill-opacity="1" fill-rule="evenodd"/></g></svg>