<svg xmlns="http://www.w3.org/2000/svg" xmlns:xlink="http://www.w3.org/1999/xlink" width="1024" zoomAndPan="magnify" viewBox="0 0 768 767.999994" height="1024" preserveAspectRatio="xMidYMid meet" version="1.0"><path fill="#4285f4" d="M 681.09375 377.464844 C 681.09375 355.527344 679.125 334.433594 675.46875 314.183594 L 384.09375 314.183594 L 384.09375 433.855469 L 550.59375 433.855469 C 543.421875 472.527344 521.625 505.292969 488.859375 527.230469 L 488.859375 604.855469 L 588.84375 604.855469 C 647.34375 550.996094 681.09375 471.683594 681.09375 377.464844 Z M 681.09375 377.464844 " fill-opacity="1" fill-rule="nonzero"/><path fill="#34a853" d="M 384.09375 679.808594 C 467.625 679.808594 537.65625 652.105469 588.84375 604.855469 L 488.859375 527.230469 C 461.15625 545.792969 425.71875 556.761719 384.09375 556.761719 C 303.515625 556.761719 235.3125 502.339844 210.984375 429.214844 L 107.625 429.214844 L 107.625 509.371094 C 158.53125 610.480469 263.15625 679.808594 384.09375 679.808594 Z M 384.09375 679.808594 " fill-opacity="1" fill-rule="nonzero"/><path fill="#fbbc05" d="M 210.984375 429.214844 C 204.796875 410.652344 201.28125 390.824219 201.28125 370.433594 C 201.28125 350.042969 204.796875 330.214844 210.984375 311.652344 L 210.984375 231.496094 L 107.625 231.496094 C 102.226562 242.238281 97.476562 253.253906 93.363281 264.550781 C 89.253906 275.847656 85.8125 287.34375 83.042969 299.039062 C 80.273438 310.738281 78.191406 322.554688 76.796875 334.492188 C 75.40625 346.433594 74.710938 358.414062 74.71875 370.433594 C 74.71875 420.355469 86.671875 467.605469 107.625 509.371094 Z M 210.984375 429.214844 " fill-opacity="1" fill-rule="nonzero"/><path fill="#ea4335" d="M 384.09375 184.105469 C 429.515625 184.105469 470.296875 199.714844 502.359375 230.371094 L 591.09375 141.636719 C 537.515625 91.714844 467.484375 61.058594 384.09375 61.058594 C 263.15625 61.058594 158.53125 130.386719 107.625 231.496094 L 210.984375 311.652344 C 235.3125 238.527344 303.515625 184.105469 384.09375 184.105469 Z M 384.09375 184.105469 " fill-opacity="1" fill-rule="nonzero"/></svg>