<svg xmlns="http://www.w3.org/2000/svg" xmlns:xlink="http://www.w3.org/1999/xlink" width="1024" zoomAndPan="magnify" viewBox="0 0 768 767.999994" height="1024" preserveAspectRatio="xMidYMid meet" version="1.0"><defs><clipPath id="516794aa4d"><path d="M 61 116.960938 L 592 116.960938 L 592 647 L 61 647 Z M 61 116.960938 " clip-rule="nonzero"/></clipPath><clipPath id="8c44729ba4"><path d="M 616 578 L 689 578 L 689 650.960938 L 616 650.960938 Z M 616 578 " clip-rule="nonzero"/></clipPath></defs><path fill="#0a66c2" d="M 657.652344 616.492188 C 658.324219 616.496094 658.988281 616.4375 659.648438 616.304688 C 660.308594 616.175781 660.949219 615.980469 661.566406 615.71875 C 662.1875 615.457031 662.773438 615.136719 663.328125 614.753906 C 663.878906 614.371094 664.390625 613.9375 664.851562 613.453125 C 665.316406 612.964844 665.726562 612.4375 666.082031 611.867188 C 666.4375 611.296875 666.730469 610.695312 666.960938 610.066406 C 667.191406 609.433594 667.359375 608.785156 667.457031 608.121094 C 667.554688 607.457031 667.585938 606.789062 667.546875 606.117188 C 667.546875 598.761719 663.105469 595.246094 653.996094 595.246094 L 639.269531 595.246094 L 639.269531 633.765625 L 644.808594 633.765625 L 644.808594 616.972656 L 651.613281 616.972656 L 651.769531 617.179688 L 662.328125 633.765625 L 668.25 633.765625 L 656.890625 616.597656 Z M 651.246094 612.632812 L 644.824219 612.632812 L 644.824219 599.609375 L 652.964844 599.609375 C 657.167969 599.609375 661.960938 600.296875 661.960938 605.800781 C 661.960938 612.125 657.109375 612.632812 651.214844 612.632812 " fill-opacity="1" fill-rule="nonzero"/><g clip-path="url(#516794aa4d)"><path fill="#0a66c2" d="M 513.199219 568.222656 L 434.671875 568.222656 L 434.671875 445.328125 C 434.671875 416.023438 434.148438 378.296875 393.832031 378.296875 C 352.933594 378.296875 346.675781 410.226562 346.675781 443.195312 L 346.675781 568.214844 L 268.148438 568.214844 L 268.148438 315.492188 L 343.535156 315.492188 L 343.535156 350.03125 L 344.589844 350.03125 C 345.527344 348.429688 346.519531 346.859375 347.5625 345.324219 C 348.605469 343.789062 349.699219 342.289062 350.84375 340.828125 C 351.988281 339.367188 353.179688 337.945312 354.421875 336.5625 C 355.664062 335.183594 356.949219 333.84375 358.277344 332.550781 C 359.609375 331.257812 360.984375 330.007812 362.398438 328.804688 C 363.8125 327.601562 365.265625 326.449219 366.761719 325.347656 C 368.253906 324.242188 369.78125 323.191406 371.347656 322.1875 C 372.910156 321.1875 374.503906 320.238281 376.132812 319.347656 C 377.761719 318.453125 379.417969 317.617188 381.101562 316.832031 C 382.785156 316.050781 384.496094 315.328125 386.230469 314.660156 C 387.960938 313.996094 389.714844 313.386719 391.488281 312.839844 C 393.265625 312.289062 395.054688 311.800781 396.863281 311.375 C 398.667969 310.945312 400.488281 310.578125 402.320312 310.273438 C 404.152344 309.96875 405.992188 309.726562 407.84375 309.546875 C 409.691406 309.363281 411.542969 309.246094 413.398438 309.1875 C 415.253906 309.132812 417.113281 309.140625 418.96875 309.207031 C 498.554688 309.207031 513.230469 361.523438 513.230469 429.582031 Z M 179.546875 280.949219 C 178.054688 280.949219 176.566406 280.875 175.082031 280.730469 C 173.597656 280.585938 172.121094 280.367188 170.65625 280.074219 C 169.191406 279.785156 167.746094 279.421875 166.320312 278.992188 C 164.890625 278.558594 163.488281 278.054688 162.109375 277.484375 C 160.730469 276.914062 159.382812 276.277344 158.066406 275.574219 C 156.75 274.871094 155.46875 274.105469 154.230469 273.277344 C 152.988281 272.449219 151.789062 271.5625 150.636719 270.617188 C 149.484375 269.671875 148.378906 268.671875 147.324219 267.617188 C 146.265625 266.5625 145.265625 265.457031 144.320312 264.304688 C 143.371094 263.152344 142.484375 261.957031 141.652344 260.714844 C 140.824219 259.476562 140.058594 258.199219 139.355469 256.882812 C 138.652344 255.570312 138.011719 254.222656 137.441406 252.84375 C 136.871094 251.464844 136.367188 250.0625 135.933594 248.636719 C 135.5 247.210938 135.136719 245.765625 134.847656 244.300781 C 134.554688 242.839844 134.335938 241.367188 134.191406 239.882812 C 134.042969 238.398438 133.96875 236.910156 133.96875 235.417969 C 133.96875 233.925781 134.042969 232.4375 134.1875 230.953125 C 134.335938 229.46875 134.554688 227.996094 134.84375 226.535156 C 135.136719 225.070312 135.496094 223.625 135.929688 222.199219 C 136.363281 220.769531 136.863281 219.367188 137.4375 217.988281 C 138.007812 216.613281 138.644531 215.265625 139.347656 213.949219 C 140.050781 212.632812 140.816406 211.355469 141.644531 210.117188 C 142.476562 208.875 143.363281 207.679688 144.308594 206.527344 C 145.253906 205.371094 146.257812 204.269531 147.3125 203.214844 C 148.367188 202.160156 149.472656 201.160156 150.625 200.210938 C 151.777344 199.265625 152.972656 198.378906 154.214844 197.550781 C 155.457031 196.71875 156.734375 195.953125 158.050781 195.25 C 159.367188 194.546875 160.714844 193.910156 162.09375 193.339844 C 163.472656 192.769531 164.875 192.265625 166.304688 191.832031 C 167.730469 191.398438 169.175781 191.039062 170.640625 190.746094 C 172.105469 190.457031 173.578125 190.238281 175.066406 190.089844 C 176.550781 189.945312 178.039062 189.871094 179.53125 189.871094 C 181.023438 189.871094 182.511719 189.941406 184 190.089844 C 185.484375 190.234375 186.957031 190.453125 188.421875 190.742188 C 189.886719 191.035156 191.332031 191.394531 192.761719 191.828125 C 194.1875 192.261719 195.59375 192.761719 196.96875 193.332031 C 198.351562 193.902344 199.695312 194.539062 201.011719 195.242188 C 202.328125 195.945312 203.609375 196.710938 204.847656 197.539062 C 206.089844 198.367188 207.289062 199.253906 208.441406 200.203125 C 209.597656 201.148438 210.699219 202.148438 211.753906 203.203125 C 212.8125 204.257812 213.8125 205.359375 214.757812 206.511719 C 215.707031 207.664062 216.59375 208.863281 217.421875 210.101562 C 218.253906 211.34375 219.019531 212.621094 219.722656 213.933594 C 220.425781 215.25 221.066406 216.597656 221.636719 217.976562 C 222.207031 219.351562 222.710938 220.753906 223.144531 222.183594 C 223.578125 223.609375 223.941406 225.054688 224.230469 226.515625 C 224.523438 227.980469 224.742188 229.453125 224.886719 230.9375 C 225.035156 232.421875 225.109375 233.910156 225.109375 235.402344 C 225.109375 236.894531 225.035156 238.378906 224.890625 239.863281 C 224.746094 241.347656 224.527344 242.824219 224.234375 244.285156 C 223.945312 245.75 223.582031 247.195312 223.148438 248.621094 C 222.714844 250.046875 222.214844 251.449219 221.644531 252.828125 C 221.070312 254.207031 220.433594 255.554688 219.730469 256.871094 C 219.027344 258.183594 218.261719 259.460938 217.433594 260.703125 C 216.605469 261.945312 215.71875 263.140625 214.769531 264.292969 C 213.824219 265.445312 212.824219 266.550781 211.765625 267.605469 C 210.710938 268.660156 209.609375 269.660156 208.457031 270.605469 C 207.300781 271.554688 206.105469 272.441406 204.863281 273.269531 C 203.621094 274.097656 202.34375 274.863281 201.027344 275.566406 C 199.710938 276.269531 198.363281 276.910156 196.984375 277.480469 C 195.605469 278.050781 194.203125 278.550781 192.777344 278.984375 C 191.347656 279.417969 189.902344 279.78125 188.4375 280.074219 C 186.972656 280.363281 185.5 280.582031 184.015625 280.730469 C 182.527344 280.875 181.039062 280.949219 179.546875 280.949219 M 218.808594 568.222656 L 140.203125 568.222656 L 140.203125 315.492188 L 218.808594 315.492188 Z M 552.34375 116.996094 L 100.742188 116.996094 C 99.476562 116.980469 98.214844 117.027344 96.953125 117.136719 C 95.691406 117.25 94.441406 117.417969 93.195312 117.652344 C 91.953125 117.882812 90.722656 118.175781 89.507812 118.53125 C 88.292969 118.882812 87.097656 119.296875 85.921875 119.765625 C 84.746094 120.238281 83.597656 120.765625 82.472656 121.347656 C 81.351562 121.929688 80.257812 122.566406 79.199219 123.257812 C 78.136719 123.949219 77.113281 124.691406 76.125 125.480469 C 75.136719 126.273438 74.1875 127.109375 73.285156 127.992188 C 72.378906 128.878906 71.519531 129.804688 70.703125 130.773438 C 69.890625 131.742188 69.125 132.746094 68.40625 133.789062 C 67.691406 134.832031 67.03125 135.910156 66.421875 137.019531 C 65.808594 138.125 65.257812 139.261719 64.757812 140.425781 C 64.257812 141.585938 63.820312 142.773438 63.4375 143.976562 C 63.054688 145.183594 62.734375 146.40625 62.46875 147.644531 C 62.207031 148.882812 62.007812 150.128906 61.867188 151.386719 C 61.730469 152.644531 61.652344 153.90625 61.636719 155.167969 L 61.636719 608.347656 C 61.652344 609.613281 61.730469 610.878906 61.867188 612.136719 C 62.007812 613.394531 62.207031 614.640625 62.46875 615.878906 C 62.730469 617.117188 63.050781 618.339844 63.433594 619.546875 C 63.816406 620.753906 64.253906 621.941406 64.753906 623.101562 C 65.25 624.265625 65.804688 625.402344 66.414062 626.511719 C 67.023438 627.621094 67.6875 628.699219 68.402344 629.742188 C 69.117188 630.789062 69.882812 631.792969 70.699219 632.761719 C 71.511719 633.734375 72.371094 634.660156 73.277344 635.542969 C 74.183594 636.429688 75.128906 637.269531 76.117188 638.058594 C 77.105469 638.851562 78.128906 639.59375 79.191406 640.285156 C 80.25 640.976562 81.34375 641.613281 82.46875 642.199219 C 83.589844 642.785156 84.738281 643.3125 85.914062 643.78125 C 87.089844 644.253906 88.285156 644.667969 89.5 645.019531 C 90.71875 645.375 91.949219 645.667969 93.191406 645.902344 C 94.4375 646.136719 95.691406 646.308594 96.953125 646.417969 C 98.214844 646.53125 99.476562 646.578125 100.742188 646.566406 L 552.34375 646.566406 C 553.613281 646.582031 554.878906 646.535156 556.144531 646.425781 C 557.410156 646.316406 558.664062 646.148438 559.914062 645.917969 C 561.160156 645.683594 562.394531 645.390625 563.613281 645.039062 C 564.832031 644.6875 566.03125 644.277344 567.207031 643.804688 C 568.386719 643.335938 569.539062 642.808594 570.667969 642.226562 C 571.792969 641.640625 572.890625 641.003906 573.953125 640.3125 C 575.019531 639.625 576.046875 638.882812 577.039062 638.089844 C 578.027344 637.300781 578.980469 636.460938 579.886719 635.574219 C 580.796875 634.691406 581.660156 633.765625 582.480469 632.792969 C 583.296875 631.824219 584.066406 630.816406 584.785156 629.773438 C 585.503906 628.726562 586.167969 627.648438 586.785156 626.539062 C 587.394531 625.429688 587.953125 624.292969 588.453125 623.125 C 588.957031 621.960938 589.398438 620.773438 589.785156 619.566406 C 590.167969 618.359375 590.496094 617.132812 590.757812 615.894531 C 591.023438 614.652344 591.226562 613.402344 591.371094 612.140625 C 591.511719 610.882812 591.589844 609.617188 591.609375 608.347656 L 591.609375 155.136719 C 591.589844 153.871094 591.511719 152.605469 591.367188 151.347656 C 591.226562 150.085938 591.019531 148.835938 590.757812 147.597656 C 590.492188 146.359375 590.167969 145.132812 589.78125 143.925781 C 589.394531 142.71875 588.953125 141.53125 588.449219 140.367188 C 587.949219 139.203125 587.390625 138.066406 586.777344 136.957031 C 586.164062 135.847656 585.5 134.773438 584.777344 133.726562 C 584.058594 132.683594 583.292969 131.675781 582.472656 130.707031 C 581.65625 129.738281 580.792969 128.8125 579.882812 127.929688 C 578.972656 127.046875 578.023438 126.207031 577.03125 125.417969 C 576.039062 124.628906 575.011719 123.886719 573.949219 123.195312 C 572.882812 122.507812 571.789062 121.871094 570.660156 121.289062 C 569.535156 120.707031 568.382812 120.179688 567.203125 119.710938 C 566.027344 119.242188 564.828125 118.832031 563.609375 118.480469 C 562.390625 118.128906 561.15625 117.835938 559.910156 117.605469 C 558.664062 117.375 557.40625 117.207031 556.144531 117.097656 C 554.878906 116.992188 553.613281 116.945312 552.34375 116.960938 " fill-opacity="1" fill-rule="nonzero"/></g><g clip-path="url(#8c44729ba4)"><path fill="#0a66c2" d="M 651.917969 578.085938 C 651.132812 578.09375 650.347656 578.128906 649.5625 578.1875 C 648.777344 578.246094 647.996094 578.332031 647.21875 578.441406 C 646.4375 578.550781 645.664062 578.683594 644.894531 578.84375 C 644.125 579.003906 643.363281 579.191406 642.605469 579.402344 C 641.847656 579.609375 641.097656 579.84375 640.355469 580.105469 C 639.613281 580.363281 638.878906 580.644531 638.15625 580.953125 C 637.429688 581.257812 636.71875 581.589844 636.015625 581.941406 C 635.3125 582.296875 634.621094 582.671875 633.945312 583.070312 C 633.265625 583.46875 632.601562 583.890625 631.953125 584.332031 C 631.300781 584.773438 630.667969 585.234375 630.046875 585.71875 C 629.425781 586.199219 628.824219 586.703125 628.234375 587.226562 C 627.648438 587.746094 627.078125 588.289062 626.527344 588.847656 C 625.976562 589.410156 625.441406 589.984375 624.929688 590.578125 C 624.414062 591.175781 623.917969 591.785156 623.445312 592.410156 C 622.96875 593.039062 622.519531 593.679688 622.085938 594.335938 C 621.652344 594.992188 621.242188 595.660156 620.851562 596.34375 C 620.464844 597.027344 620.097656 597.722656 619.753906 598.429688 C 619.410156 599.136719 619.089844 599.851562 618.792969 600.582031 C 618.5 601.308594 618.226562 602.046875 617.976562 602.789062 C 617.730469 603.535156 617.503906 604.289062 617.308594 605.050781 C 617.105469 605.808594 616.933594 606.574219 616.785156 607.347656 C 616.636719 608.117188 616.511719 608.894531 616.414062 609.671875 C 616.3125 610.453125 616.242188 611.234375 616.195312 612.019531 C 616.144531 612.804688 616.125 613.589844 616.125 614.375 C 616.128906 615.160156 616.160156 615.945312 616.214844 616.726562 C 616.269531 617.511719 616.351562 618.292969 616.457031 619.070312 C 616.5625 619.851562 616.695312 620.625 616.851562 621.394531 C 617.007812 622.164062 617.191406 622.929688 617.394531 623.6875 C 617.601562 624.445312 617.832031 625.195312 618.089844 625.941406 C 618.34375 626.683594 618.625 627.417969 618.925781 628.140625 C 619.230469 628.867188 619.558594 629.582031 619.910156 630.285156 C 620.257812 630.988281 620.628906 631.679688 621.023438 632.359375 C 621.421875 633.035156 621.839844 633.703125 622.277344 634.355469 C 622.714844 635.007812 623.175781 635.644531 623.652344 636.265625 C 624.132812 636.886719 624.636719 637.492188 625.15625 638.082031 C 625.675781 638.671875 626.214844 639.246094 626.769531 639.796875 C 627.328125 640.351562 627.902344 640.886719 628.496094 641.40625 C 629.089844 641.921875 629.695312 642.417969 630.320312 642.894531 C 630.945312 643.375 631.585938 643.828125 632.242188 644.265625 C 632.894531 644.699219 633.5625 645.113281 634.246094 645.503906 C 634.925781 645.898438 635.621094 646.265625 636.328125 646.613281 C 637.03125 646.960938 637.75 647.28125 638.472656 647.582031 C 639.199219 647.882812 639.9375 648.160156 640.683594 648.410156 C 641.425781 648.660156 642.179688 648.890625 642.9375 649.09375 C 643.699219 649.292969 644.464844 649.472656 645.238281 649.625 C 646.007812 649.777344 646.78125 649.90625 647.5625 650.007812 C 648.339844 650.109375 649.121094 650.1875 649.90625 650.238281 C 650.691406 650.289062 651.476562 650.316406 652.261719 650.316406 C 653.050781 650.316406 653.835938 650.289062 654.621094 650.238281 C 655.40625 650.1875 656.1875 650.109375 656.96875 650.007812 C 657.746094 649.90625 658.523438 649.777344 659.292969 649.625 C 660.066406 649.472656 660.832031 649.296875 661.589844 649.09375 C 662.347656 648.890625 663.101562 648.664062 663.847656 648.410156 C 664.59375 648.160156 665.328125 647.882812 666.054688 647.582031 C 666.78125 647.285156 667.496094 646.960938 668.203125 646.613281 C 668.90625 646.265625 669.601562 645.898438 670.28125 645.503906 C 670.964844 645.113281 671.632812 644.699219 672.285156 644.265625 C 672.941406 643.828125 673.582031 643.375 674.207031 642.894531 C 674.828125 642.417969 675.4375 641.921875 676.03125 641.40625 C 676.625 640.890625 677.199219 640.351562 677.753906 639.800781 C 678.3125 639.246094 678.851562 638.671875 679.371094 638.082031 C 679.890625 637.492188 680.390625 636.886719 680.871094 636.265625 C 681.351562 635.644531 681.8125 635.007812 682.25 634.355469 C 682.691406 633.703125 683.105469 633.039062 683.5 632.359375 C 683.898438 631.679688 684.269531 630.988281 684.621094 630.285156 C 684.96875 629.582031 685.296875 628.867188 685.601562 628.140625 C 685.90625 627.417969 686.183594 626.683594 686.441406 625.941406 C 686.695312 625.195312 686.925781 624.445312 687.132812 623.6875 C 687.339844 622.929688 687.519531 622.164062 687.675781 621.394531 C 687.832031 620.625 687.964844 619.851562 688.070312 619.074219 C 688.175781 618.292969 688.257812 617.511719 688.3125 616.730469 C 688.367188 615.945312 688.398438 615.160156 688.402344 614.375 C 688.40625 613.589844 688.382812 612.804688 688.335938 612.019531 C 688.289062 611.234375 688.214844 610.453125 688.117188 609.675781 C 688.015625 608.894531 687.894531 608.121094 687.746094 607.347656 C 687.597656 606.574219 687.421875 605.808594 687.222656 605.050781 C 687.023438 604.289062 686.800781 603.539062 686.550781 602.792969 C 686.304688 602.046875 686.03125 601.308594 685.734375 600.582031 C 685.4375 599.855469 685.117188 599.136719 684.773438 598.429688 C 684.429688 597.722656 684.0625 597.027344 683.675781 596.34375 C 683.285156 595.664062 682.875 594.992188 682.445312 594.335938 C 682.011719 593.679688 681.558594 593.039062 681.082031 592.410156 C 680.609375 591.785156 680.113281 591.175781 679.601562 590.582031 C 679.085938 589.984375 678.554688 589.410156 678 588.847656 C 677.449219 588.289062 676.878906 587.75 676.292969 587.226562 C 675.707031 586.703125 675.101562 586.203125 674.480469 585.71875 C 673.859375 585.234375 673.226562 584.773438 672.574219 584.332031 C 671.925781 583.890625 671.261719 583.46875 670.582031 583.070312 C 669.90625 582.671875 669.214844 582.296875 668.511719 581.945312 C 667.8125 581.589844 667.097656 581.261719 666.375 580.953125 C 665.648438 580.648438 664.917969 580.363281 664.175781 580.105469 C 663.433594 579.84375 662.683594 579.609375 661.925781 579.402344 C 661.167969 579.191406 660.402344 579.003906 659.636719 578.84375 C 658.867188 578.683594 658.089844 578.550781 657.3125 578.441406 C 656.535156 578.332031 655.753906 578.246094 654.96875 578.1875 C 654.183594 578.128906 653.398438 578.09375 652.613281 578.085938 L 651.917969 578.085938 M 651.917969 646.179688 C 650.878906 646.199219 649.84375 646.164062 648.808594 646.078125 C 647.773438 645.996094 646.746094 645.859375 645.726562 645.675781 C 644.703125 645.488281 643.691406 645.253906 642.695312 644.96875 C 641.699219 644.683594 640.714844 644.351562 639.753906 643.972656 C 638.785156 643.589844 637.84375 643.164062 636.917969 642.691406 C 635.996094 642.214844 635.097656 641.699219 634.226562 641.136719 C 633.351562 640.574219 632.511719 639.972656 631.695312 639.328125 C 630.882812 638.683594 630.105469 638 629.359375 637.277344 C 628.613281 636.558594 627.902344 635.800781 627.230469 635.011719 C 626.558594 634.21875 625.929688 633.398438 625.335938 632.546875 C 624.746094 631.691406 624.199219 630.8125 623.695312 629.90625 C 623.191406 629 622.730469 628.070312 622.316406 627.121094 C 621.90625 626.167969 621.539062 625.199219 621.222656 624.210938 C 620.90625 623.226562 620.636719 622.222656 620.417969 621.210938 C 620.199219 620.195312 620.027344 619.175781 619.910156 618.144531 C 619.789062 617.113281 619.722656 616.082031 619.707031 615.042969 C 619.6875 614.007812 619.722656 612.972656 619.808594 611.9375 C 619.890625 610.902344 620.027344 609.875 620.210938 608.855469 C 620.398438 607.835938 620.632812 606.828125 620.917969 605.828125 C 621.203125 604.832031 621.535156 603.851562 621.914062 602.886719 C 622.296875 601.921875 622.726562 600.976562 623.199219 600.054688 C 623.671875 599.132812 624.191406 598.234375 624.753906 597.363281 C 625.316406 596.492188 625.917969 595.648438 626.5625 594.835938 C 627.207031 594.023438 627.890625 593.246094 628.613281 592.5 C 629.335938 591.753906 630.089844 591.046875 630.882812 590.375 C 631.671875 589.703125 632.496094 589.074219 633.347656 588.484375 C 634.203125 587.890625 635.082031 587.34375 635.988281 586.839844 C 636.894531 586.335938 637.824219 585.878906 638.777344 585.464844 C 639.730469 585.054688 640.699219 584.6875 641.6875 584.371094 C 642.671875 584.050781 643.675781 583.785156 644.691406 583.566406 C 645.707031 583.34375 646.726562 583.175781 647.757812 583.058594 C 648.789062 582.9375 649.824219 582.871094 650.863281 582.855469 C 651.898438 582.835938 652.933594 582.871094 653.96875 582.953125 C 655.003906 583.039062 656.03125 583.175781 657.054688 583.359375 C 658.074219 583.542969 659.082031 583.78125 660.082031 584.0625 C 661.078125 584.347656 662.058594 584.679688 663.027344 585.0625 C 663.992188 585.441406 664.933594 585.871094 665.859375 586.34375 C 666.78125 586.816406 667.679688 587.335938 668.550781 587.898438 C 669.421875 588.457031 670.265625 589.0625 671.078125 589.707031 C 671.894531 590.351562 672.671875 591.035156 673.417969 591.753906 C 674.164062 592.476562 674.875 593.230469 675.546875 594.023438 C 676.214844 594.8125 676.847656 595.632812 677.4375 596.488281 C 678.03125 597.339844 678.578125 598.21875 679.082031 599.125 C 679.585938 600.03125 680.046875 600.960938 680.457031 601.914062 C 680.871094 602.863281 681.238281 603.832031 681.554688 604.820312 C 681.871094 605.808594 682.140625 606.808594 682.359375 607.824219 C 682.578125 608.835938 682.75 609.859375 682.867188 610.886719 C 682.988281 611.917969 683.054688 612.953125 683.074219 613.988281 C 683.074219 614.167969 683.074219 614.339844 683.074219 614.519531 C 683.09375 615.535156 683.066406 616.546875 682.988281 617.558594 C 682.910156 618.570312 682.785156 619.578125 682.605469 620.578125 C 682.429688 621.574219 682.207031 622.5625 681.929688 623.542969 C 681.65625 624.519531 681.335938 625.480469 680.96875 626.425781 C 680.597656 627.371094 680.183594 628.296875 679.726562 629.203125 C 679.265625 630.105469 678.765625 630.988281 678.21875 631.839844 C 677.671875 632.699219 677.085938 633.523438 676.457031 634.324219 C 675.832031 635.121094 675.167969 635.886719 674.464844 636.617188 C 673.761719 637.351562 673.027344 638.046875 672.253906 638.707031 C 671.484375 639.367188 670.679688 639.988281 669.851562 640.570312 C 669.019531 641.152344 668.160156 641.691406 667.273438 642.191406 C 666.390625 642.6875 665.484375 643.140625 664.554688 643.550781 C 663.625 643.957031 662.675781 644.320312 661.710938 644.636719 C 660.746094 644.953125 659.769531 645.21875 658.777344 645.4375 C 657.785156 645.65625 656.785156 645.828125 655.777344 645.949219 C 654.769531 646.070312 653.757812 646.140625 652.742188 646.164062 L 651.925781 646.164062 " fill-opacity="1" fill-rule="nonzero"/></g></svg>