<svg xmlns="http://www.w3.org/2000/svg" xmlns:xlink="http://www.w3.org/1999/xlink" width="1024" zoomAndPan="magnify" viewBox="0 0 768 767.999994" height="1024" preserveAspectRatio="xMidYMid meet" version="1.0"><defs><g/><clipPath id="9a346d7a85"><path d="M 65.546875 87.121094 L 746.914062 87.121094 L 746.914062 735.5625 L 65.546875 735.5625 Z M 65.546875 87.121094 " clip-rule="nonzero"/></clipPath><clipPath id="60b8ae81ec"><path d="M 134.546875 87.121094 L 677.222656 87.121094 C 715.328125 87.121094 746.222656 118.015625 746.222656 156.121094 L 746.222656 666.5625 C 746.222656 704.667969 715.328125 735.5625 677.222656 735.5625 L 134.546875 735.5625 C 96.441406 735.5625 65.546875 704.667969 65.546875 666.5625 L 65.546875 156.121094 C 65.546875 118.015625 96.441406 87.121094 134.546875 87.121094 Z M 134.546875 87.121094 " clip-rule="nonzero"/></clipPath><clipPath id="466ad3910c"><path d="M 42.042969 64.832031 L 712.839844 64.832031 L 712.839844 687.023438 L 42.042969 687.023438 Z M 42.042969 64.832031 " clip-rule="nonzero"/></clipPath><clipPath id="d7c96ed2fa"><path d="M 111.042969 64.832031 L 643.679688 64.832031 C 681.785156 64.832031 712.679688 95.726562 712.679688 133.832031 L 712.679688 618.023438 C 712.679688 656.128906 681.785156 687.023438 643.679688 687.023438 L 111.042969 687.023438 C 72.933594 687.023438 42.042969 656.128906 42.042969 618.023438 L 42.042969 133.832031 C 42.042969 95.726562 72.933594 64.832031 111.042969 64.832031 Z M 111.042969 64.832031 " clip-rule="nonzero"/></clipPath><clipPath id="efe3572704"><path d="M 21.777344 40.609375 L 692.578125 40.609375 L 692.578125 662.800781 L 21.777344 662.800781 Z M 21.777344 40.609375 " clip-rule="nonzero"/></clipPath><clipPath id="14288ecec8"><path d="M 90.777344 40.609375 L 623.414062 40.609375 C 661.523438 40.609375 692.414062 71.503906 692.414062 109.609375 L 692.414062 593.800781 C 692.414062 631.90625 661.523438 662.800781 623.414062 662.800781 L 90.777344 662.800781 C 52.671875 662.800781 21.777344 631.90625 21.777344 593.800781 L 21.777344 109.609375 C 21.777344 71.503906 52.671875 40.609375 90.777344 40.609375 Z M 90.777344 40.609375 " clip-rule="nonzero"/></clipPath><clipPath id="ade89e0602"><path d="M 228 201 L 366 201 L 366 333 L 228 333 Z M 228 201 " clip-rule="nonzero"/></clipPath><clipPath id="7ebbdb8c2d"><path d="M 228.710938 283.222656 L 322.074219 201.550781 L 365.15625 250.800781 L 271.789062 332.46875 Z M 228.710938 283.222656 " clip-rule="nonzero"/></clipPath><clipPath id="6ff6ba4d2b"><path d="M 42 384 L 179 384 L 179 515 L 42 515 Z M 42 384 " clip-rule="nonzero"/></clipPath><clipPath id="36ce587a61"><path d="M 42.042969 465.671875 L 135.410156 384 L 178.488281 433.246094 L 85.121094 514.917969 Z M 42.042969 465.671875 " clip-rule="nonzero"/></clipPath><clipPath id="4f8b31e9d7"><path d="M 579 387 L 672 387 L 672 468 L 579 468 Z M 579 387 " clip-rule="nonzero"/></clipPath><clipPath id="0a3211db53"><path d="M 579.519531 419.976562 L 648.824219 387.308594 L 671.117188 434.609375 L 601.8125 467.273438 Z M 579.519531 419.976562 " clip-rule="nonzero"/></clipPath></defs><g clip-path="url(#9a346d7a85)"><g clip-path="url(#60b8ae81ec)"><path fill="#fabc04" d="M 65.546875 87.121094 L 746.914062 87.121094 L 746.914062 735.5625 L 65.546875 735.5625 Z M 65.546875 87.121094 " fill-opacity="1" fill-rule="nonzero"/></g></g><g clip-path="url(#466ad3910c)"><g clip-path="url(#d7c96ed2fa)"><path fill="#ebe2e2" d="M 42.042969 64.832031 L 712.839844 64.832031 L 712.839844 687.023438 L 42.042969 687.023438 Z M 42.042969 64.832031 " fill-opacity="1" fill-rule="nonzero"/></g></g><g clip-path="url(#efe3572704)"><g clip-path="url(#14288ecec8)"><path fill="#1a2954" d="M 21.777344 40.609375 L 692.578125 40.609375 L 692.578125 662.800781 L 21.777344 662.800781 Z M 21.777344 40.609375 " fill-opacity="1" fill-rule="nonzero"/></g></g><g fill="#f8f1ef" fill-opacity="1"><g transform="translate(77.382597, 577.083615)"><g><path d="M 105.9375 -436.84375 L 167.09375 -436.84375 C 192.9375 -436.84375 212.5 -430.195312 225.78125 -416.90625 C 239.070312 -403.613281 245.71875 -384.046875 245.71875 -358.203125 L 245.71875 -300.328125 C 245.71875 -294.503906 242.804688 -291.59375 236.984375 -291.59375 L 180.203125 -291.59375 C 174.367188 -291.59375 171.453125 -294.503906 171.453125 -300.328125 L 171.453125 -342.921875 C 171.453125 -357.484375 164.171875 -364.765625 149.609375 -364.765625 L 123.40625 -364.765625 C 108.84375 -364.765625 101.5625 -357.484375 101.5625 -342.921875 L 101.5625 -267.5625 L 231.53125 -224.96875 C 240.988281 -220.96875 245.71875 -214.234375 245.71875 -204.765625 L 245.71875 -78.625 C 245.71875 -53.144531 239.070312 -33.671875 225.78125 -20.203125 C 212.5 -6.734375 192.9375 0 167.09375 0 L 105.9375 0 C 80.445312 0 60.96875 -6.734375 47.5 -20.203125 C 34.03125 -33.671875 27.296875 -53.144531 27.296875 -78.625 L 27.296875 -135.96875 C 27.296875 -141.789062 30.210938 -144.703125 36.046875 -144.703125 L 92.828125 -144.703125 C 98.648438 -144.703125 101.5625 -141.789062 101.5625 -135.96875 L 101.5625 -93.921875 C 101.5625 -79.359375 108.84375 -72.078125 123.40625 -72.078125 L 149.609375 -72.078125 C 164.171875 -72.078125 171.453125 -79.359375 171.453125 -93.921875 L 171.453125 -166.546875 L 42.046875 -209.140625 C 32.210938 -212.410156 27.296875 -219.144531 27.296875 -229.34375 L 27.296875 -358.203125 C 27.296875 -384.046875 34.03125 -403.613281 47.5 -416.90625 C 60.96875 -430.195312 80.445312 -436.84375 105.9375 -436.84375 Z M 105.9375 -436.84375 "/></g></g></g><g fill="#f8f1ef" fill-opacity="1"><g transform="translate(373.8852, 577.083615)"><g><path d="M 251.734375 -358.203125 L 251.734375 -224.96875 C 251.734375 -188.5625 238.441406 -164.535156 211.859375 -152.890625 L 249.546875 -9.828125 C 251.367188 -3.273438 248.820312 0 241.90625 0 L 185.109375 0 C 180.015625 0 176.921875 -2.546875 175.828125 -7.640625 L 139.234375 -146.34375 L 101.5625 -146.34375 L 101.5625 -8.734375 C 101.5625 -2.910156 98.648438 0 92.828125 0 L 36.046875 0 C 30.210938 0 27.296875 -2.910156 27.296875 -8.734375 L 27.296875 -428.09375 C 27.296875 -433.925781 30.210938 -436.84375 36.046875 -436.84375 L 173.09375 -436.84375 C 198.9375 -436.84375 218.503906 -430.195312 231.796875 -416.90625 C 245.085938 -403.613281 251.734375 -384.046875 251.734375 -358.203125 Z M 101.5625 -218.421875 L 155.625 -218.421875 C 170.1875 -218.421875 177.46875 -225.703125 177.46875 -240.265625 L 177.46875 -342.921875 C 177.46875 -357.484375 170.1875 -364.765625 155.625 -364.765625 L 101.5625 -364.765625 Z M 101.5625 -218.421875 "/></g></g></g><g clip-path="url(#ade89e0602)"><g clip-path="url(#7ebbdb8c2d)"><path fill="#1a2954" d="M 228.710938 283.222656 L 322.011719 201.609375 L 365.089844 250.855469 L 271.789062 332.46875 Z M 228.710938 283.222656 " fill-opacity="1" fill-rule="nonzero"/></g></g><g clip-path="url(#6ff6ba4d2b)"><g clip-path="url(#36ce587a61)"><path fill="#1a2954" d="M 42.042969 465.671875 L 135.34375 384.054688 L 178.421875 433.300781 L 85.121094 514.917969 Z M 42.042969 465.671875 " fill-opacity="1" fill-rule="nonzero"/></g></g><g clip-path="url(#4f8b31e9d7)"><g clip-path="url(#0a3211db53)"><path fill="#1a2954" d="M 579.519531 419.976562 L 648.800781 387.320312 L 671.09375 434.617188 L 601.8125 467.273438 Z M 579.519531 419.976562 " fill-opacity="1" fill-rule="nonzero"/></g></g></svg>