<svg xmlns="http://www.w3.org/2000/svg" xmlns:xlink="http://www.w3.org/1999/xlink" width="1024" zoomAndPan="magnify" viewBox="0 0 768 767.999994" height="1024" preserveAspectRatio="xMidYMid meet" version="1.0"><path fill="#ffffff" d="M 408.953125 384.414062 C 408.953125 445.976562 359.40625 495.878906 298.292969 495.878906 C 237.179688 495.878906 187.628906 445.976562 187.628906 384.414062 C 187.628906 322.855469 237.175781 272.945312 298.292969 272.945312 C 359.410156 272.945312 408.953125 322.855469 408.953125 384.414062 " fill-opacity="1" fill-rule="nonzero"/><path fill="#ffffff" d="M 530.347656 384.414062 C 530.347656 442.363281 505.574219 489.355469 475.015625 489.355469 C 444.457031 489.355469 419.683594 442.363281 419.683594 384.414062 C 419.683594 326.46875 444.453125 279.476562 475.011719 279.476562 C 505.574219 279.476562 530.34375 326.453125 530.34375 384.414062 " fill-opacity="1" fill-rule="nonzero"/><path fill="#ffffff" d="M 580.003906 384.414062 C 580.003906 436.320312 571.292969 478.425781 560.542969 478.425781 C 549.792969 478.425781 541.085938 436.332031 541.085938 384.414062 C 541.085938 332.496094 549.796875 290.40625 560.542969 290.40625 C 571.289062 290.40625 580.003906 332.496094 580.003906 384.414062 " fill-opacity="1" fill-rule="nonzero"/></svg>