<svg xmlns="http://www.w3.org/2000/svg" xmlns:xlink="http://www.w3.org/1999/xlink" width="1024" zoomAndPan="magnify" viewBox="0 0 768 767.999994" height="1024" preserveAspectRatio="xMidYMid meet" version="1.0"><defs><clipPath id="5fa43277d5"><path d="M 34.496094 50.886719 L 700.496094 50.886719 L 700.496094 716.886719 L 34.496094 716.886719 Z M 34.496094 50.886719 " clip-rule="nonzero"/></clipPath><clipPath id="4dee9935dc"><path d="M 701.011719 384.144531 C 701.011719 389.597656 700.878906 395.050781 700.613281 400.496094 C 700.34375 405.945312 699.945312 411.382812 699.410156 416.808594 C 698.875 422.238281 698.207031 427.648438 697.40625 433.042969 C 696.605469 438.4375 695.675781 443.8125 694.609375 449.160156 C 693.546875 454.507812 692.351562 459.828125 691.027344 465.121094 C 689.699219 470.410156 688.246094 475.664062 686.664062 480.882812 C 685.082031 486.105469 683.371094 491.28125 681.53125 496.417969 C 679.695312 501.550781 677.734375 506.636719 675.644531 511.675781 C 673.558594 516.714844 671.347656 521.699219 669.015625 526.632812 C 666.683594 531.5625 664.234375 536.433594 661.664062 541.242188 C 659.089844 546.050781 656.402344 550.796875 653.601562 555.472656 C 650.796875 560.152344 647.878906 564.757812 644.847656 569.292969 C 641.820312 573.828125 638.679688 578.285156 635.429688 582.667969 C 632.183594 587.046875 628.828125 591.347656 625.367188 595.5625 C 621.90625 599.777344 618.347656 603.90625 614.683594 607.949219 C 611.019531 611.988281 607.261719 615.9375 603.402344 619.792969 C 599.546875 623.652344 595.597656 627.410156 591.558594 631.074219 C 587.515625 634.734375 583.386719 638.296875 579.171875 641.757812 C 574.957031 645.21875 570.65625 648.570312 566.277344 651.820312 C 561.894531 655.070312 557.4375 658.210938 552.902344 661.238281 C 548.367188 664.269531 543.761719 667.1875 539.082031 669.992188 C 534.40625 672.792969 529.660156 675.480469 524.851562 678.054688 C 520.042969 680.625 515.171875 683.074219 510.242188 685.40625 C 505.308594 687.738281 500.324219 689.949219 495.285156 692.035156 C 490.246094 694.125 485.160156 696.085938 480.027344 697.921875 C 474.890625 699.761719 469.714844 701.472656 464.496094 703.054688 C 459.273438 704.636719 454.019531 706.089844 448.730469 707.417969 C 443.4375 708.742188 438.117188 709.9375 432.769531 711 C 427.421875 712.066406 422.046875 712.996094 416.652344 713.796875 C 411.257812 714.597656 405.847656 715.265625 400.417969 715.800781 C 394.992188 716.332031 389.554688 716.734375 384.105469 717.003906 C 378.660156 717.269531 373.207031 717.402344 367.753906 717.402344 C 362.300781 717.402344 356.847656 717.269531 351.402344 717.003906 C 345.953125 716.734375 340.515625 716.332031 335.089844 715.800781 C 329.660156 715.265625 324.25 714.597656 318.855469 713.796875 C 313.460938 712.996094 308.085938 712.066406 302.738281 711 C 297.390625 709.9375 292.070312 708.742188 286.777344 707.417969 C 281.488281 706.089844 276.234375 704.636719 271.015625 703.054688 C 265.792969 701.472656 260.617188 699.761719 255.480469 697.921875 C 250.347656 696.085938 245.261719 694.125 240.222656 692.035156 C 235.183594 689.949219 230.199219 687.738281 225.265625 685.40625 C 220.335938 683.074219 215.464844 680.625 210.65625 678.054688 C 205.847656 675.480469 201.101562 672.792969 196.425781 669.992188 C 191.746094 667.1875 187.140625 664.269531 182.605469 661.238281 C 178.070312 658.210938 173.613281 655.070312 169.230469 651.820312 C 164.851562 648.570312 160.550781 645.21875 156.335938 641.757812 C 152.121094 638.296875 147.992188 634.734375 143.949219 631.074219 C 139.910156 627.410156 135.960938 623.652344 132.105469 619.792969 C 128.246094 615.9375 124.488281 611.988281 120.824219 607.949219 C 117.164062 603.90625 113.601562 599.777344 110.140625 595.5625 C 106.679688 591.347656 103.328125 587.046875 100.078125 582.667969 C 96.828125 578.285156 93.6875 573.828125 90.660156 569.292969 C 87.628906 564.757812 84.710938 560.152344 81.90625 555.472656 C 79.105469 550.796875 76.417969 546.050781 73.84375 541.242188 C 71.273438 536.433594 68.824219 531.5625 66.492188 526.632812 C 64.160156 521.699219 61.949219 516.714844 59.863281 511.675781 C 57.773438 506.636719 55.8125 501.550781 53.976562 496.417969 C 52.136719 491.28125 50.429688 486.105469 48.84375 480.882812 C 47.261719 475.664062 45.808594 470.410156 44.480469 465.121094 C 43.15625 459.828125 41.960938 454.507812 40.898438 449.160156 C 39.835938 443.8125 38.902344 438.4375 38.101562 433.042969 C 37.300781 427.648438 36.632812 422.238281 36.097656 416.808594 C 35.566406 411.382812 35.164062 405.945312 34.894531 400.496094 C 34.628906 395.050781 34.496094 389.597656 34.496094 384.144531 C 34.496094 378.691406 34.628906 373.238281 34.894531 367.792969 C 35.164062 362.34375 35.566406 356.90625 36.097656 351.480469 C 36.632812 346.050781 37.300781 340.640625 38.101562 335.246094 C 38.902344 329.851562 39.835938 324.476562 40.898438 319.128906 C 41.960938 313.78125 43.15625 308.460938 44.480469 303.167969 C 45.808594 297.878906 47.261719 292.625 48.84375 287.40625 C 50.429688 282.183594 52.136719 277.007812 53.976562 271.871094 C 55.8125 266.738281 57.773438 261.652344 59.863281 256.613281 C 61.949219 251.574219 64.160156 246.589844 66.492188 241.65625 C 68.824219 236.726562 71.273438 231.855469 73.84375 227.046875 C 76.417969 222.238281 79.105469 217.492188 81.90625 212.816406 C 84.710938 208.136719 87.628906 203.53125 90.660156 198.996094 C 93.6875 194.460938 96.828125 190.003906 100.078125 185.621094 C 103.328125 181.242188 106.679688 176.941406 110.140625 172.726562 C 113.601562 168.511719 117.164062 164.382812 120.824219 160.339844 C 124.488281 156.300781 128.246094 152.351562 132.105469 148.496094 C 135.960938 144.636719 139.910156 140.878906 143.949219 137.214844 C 147.992188 133.554688 152.121094 129.992188 156.335938 126.53125 C 160.550781 123.070312 164.851562 119.71875 169.230469 116.46875 C 173.613281 113.21875 178.070312 110.078125 182.605469 107.050781 C 187.140625 104.019531 191.746094 101.101562 196.425781 98.296875 C 201.101562 95.496094 205.847656 92.808594 210.65625 90.234375 C 215.464844 87.664062 220.335938 85.214844 225.265625 82.882812 C 230.199219 80.550781 235.183594 78.339844 240.222656 76.253906 C 245.261719 74.164062 250.347656 72.203125 255.480469 70.367188 C 260.617188 68.527344 265.792969 66.816406 271.015625 65.234375 C 276.234375 63.652344 281.488281 62.199219 286.777344 60.871094 C 292.070312 59.546875 297.390625 58.351562 302.738281 57.289062 C 308.085938 56.222656 313.460938 55.292969 318.855469 54.492188 C 324.25 53.691406 329.660156 53.023438 335.089844 52.488281 C 340.515625 51.957031 345.953125 51.554688 351.402344 51.285156 C 356.847656 51.019531 362.300781 50.886719 367.753906 50.886719 C 373.207031 50.886719 378.660156 51.019531 384.105469 51.285156 C 389.554688 51.554688 394.992188 51.957031 400.417969 52.488281 C 405.847656 53.023438 411.257812 53.691406 416.652344 54.492188 C 422.046875 55.292969 427.421875 56.222656 432.769531 57.289062 C 438.117188 58.351562 443.4375 59.546875 448.730469 60.871094 C 454.019531 62.199219 459.273438 63.652344 464.496094 65.234375 C 469.714844 66.816406 474.890625 68.527344 480.027344 70.367188 C 485.160156 72.203125 490.246094 74.164062 495.285156 76.253906 C 500.324219 78.339844 505.308594 80.550781 510.242188 82.882812 C 515.171875 85.214844 520.042969 87.664062 524.851562 90.234375 C 529.660156 92.808594 534.40625 95.496094 539.082031 98.296875 C 543.761719 101.101562 548.367188 104.019531 552.902344 107.050781 C 557.4375 110.078125 561.894531 113.21875 566.277344 116.46875 C 570.65625 119.71875 574.957031 123.070312 579.171875 126.53125 C 583.386719 129.992188 587.515625 133.554688 591.558594 137.214844 C 595.597656 140.878906 599.546875 144.636719 603.402344 148.496094 C 607.261719 152.351562 611.019531 156.300781 614.683594 160.339844 C 618.347656 164.382812 621.90625 168.511719 625.367188 172.726562 C 628.828125 176.941406 632.183594 181.242188 635.429688 185.621094 C 638.679688 190.003906 641.820312 194.460938 644.847656 198.996094 C 647.878906 203.53125 650.796875 208.136719 653.601562 212.816406 C 656.402344 217.492188 659.089844 222.238281 661.664062 227.046875 C 664.234375 231.855469 666.683594 236.726562 669.015625 241.65625 C 671.347656 246.589844 673.558594 251.574219 675.644531 256.613281 C 677.734375 261.652344 679.695312 266.738281 681.53125 271.871094 C 683.371094 277.007812 685.082031 282.183594 686.664062 287.40625 C 688.246094 292.625 689.699219 297.878906 691.027344 303.167969 C 692.351562 308.460938 693.546875 313.78125 694.609375 319.128906 C 695.675781 324.476562 696.605469 329.851562 697.40625 335.246094 C 698.207031 340.640625 698.875 346.050781 699.410156 351.480469 C 699.945312 356.90625 700.34375 362.34375 700.613281 367.792969 C 700.878906 373.238281 701.011719 378.691406 701.011719 384.144531 Z M 701.011719 384.144531 " clip-rule="nonzero"/></clipPath><linearGradient x1="-0.00000033082" gradientTransform="matrix(5.190958, 0, 0, 5.190958, 34.494598, 50.88503)" y1="64.153" x2="128.299999" gradientUnits="userSpaceOnUse" y2="64.153" id="b8c11584f0"><stop stop-opacity="1" stop-color="rgb(16.499329%, 67.098999%, 93.299866%)" offset="0"/><stop stop-opacity="1" stop-color="rgb(16.448975%, 67.019653%, 93.171692%)" offset="0.03125"/><stop stop-opacity="1" stop-color="rgb(16.348267%, 66.859436%, 92.915344%)" offset="0.0625"/><stop stop-opacity="1" stop-color="rgb(16.249084%, 66.700745%, 92.658997%)" offset="0.09375"/><stop stop-opacity="1" stop-color="rgb(16.148376%, 66.540527%, 92.402649%)" offset="0.125"/><stop stop-opacity="1" stop-color="rgb(16.049194%, 66.381836%, 92.146301%)" offset="0.15625"/><stop stop-opacity="1" stop-color="rgb(15.948486%, 66.223145%, 91.889954%)" offset="0.1875"/><stop stop-opacity="1" stop-color="rgb(15.849304%, 66.062927%, 91.633606%)" offset="0.21875"/><stop stop-opacity="1" stop-color="rgb(15.748596%, 65.904236%, 91.377258%)" offset="0.25"/><stop stop-opacity="1" stop-color="rgb(15.649414%, 65.744019%, 91.120911%)" offset="0.28125"/><stop stop-opacity="1" stop-color="rgb(15.548706%, 65.585327%, 90.864563%)" offset="0.3125"/><stop stop-opacity="1" stop-color="rgb(15.449524%, 65.42511%, 90.608215%)" offset="0.34375"/><stop stop-opacity="1" stop-color="rgb(15.348816%, 65.266418%, 90.351868%)" offset="0.375"/><stop stop-opacity="1" stop-color="rgb(15.249634%, 65.106201%, 90.09552%)" offset="0.40625"/><stop stop-opacity="1" stop-color="rgb(15.148926%, 64.94751%, 89.840698%)" offset="0.4375"/><stop stop-opacity="1" stop-color="rgb(15.048218%, 64.788818%, 89.584351%)" offset="0.46875"/><stop stop-opacity="1" stop-color="rgb(14.949036%, 64.628601%, 89.328003%)" offset="0.5"/><stop stop-opacity="1" stop-color="rgb(14.848328%, 64.46991%, 89.071655%)" offset="0.53125"/><stop stop-opacity="1" stop-color="rgb(14.749146%, 64.309692%, 88.815308%)" offset="0.5625"/><stop stop-opacity="1" stop-color="rgb(14.648438%, 64.151001%, 88.55896%)" offset="0.59375"/><stop stop-opacity="1" stop-color="rgb(14.549255%, 63.990784%, 88.302612%)" offset="0.625"/><stop stop-opacity="1" stop-color="rgb(14.448547%, 63.832092%, 88.046265%)" offset="0.65625"/><stop stop-opacity="1" stop-color="rgb(14.349365%, 63.671875%, 87.789917%)" offset="0.6875"/><stop stop-opacity="1" stop-color="rgb(14.248657%, 63.513184%, 87.533569%)" offset="0.71875"/><stop stop-opacity="1" stop-color="rgb(14.149475%, 63.354492%, 87.277222%)" offset="0.75"/><stop stop-opacity="1" stop-color="rgb(14.048767%, 63.194275%, 87.020874%)" offset="0.78125"/><stop stop-opacity="1" stop-color="rgb(13.949585%, 63.035583%, 86.764526%)" offset="0.8125"/><stop stop-opacity="1" stop-color="rgb(13.848877%, 62.875366%, 86.508179%)" offset="0.84375"/><stop stop-opacity="1" stop-color="rgb(13.749695%, 62.716675%, 86.253357%)" offset="0.875"/><stop stop-opacity="1" stop-color="rgb(13.648987%, 62.556458%, 85.997009%)" offset="0.90625"/><stop stop-opacity="1" stop-color="rgb(13.548279%, 62.397766%, 85.740662%)" offset="0.9375"/><stop stop-opacity="1" stop-color="rgb(13.449097%, 62.237549%, 85.484314%)" offset="0.96875"/><stop stop-opacity="1" stop-color="rgb(13.348389%, 62.078857%, 85.227966%)" offset="1"/></linearGradient></defs><g clip-path="url(#5fa43277d5)"><g clip-path="url(#4dee9935dc)"><path fill="url(#b8c11584f0)" d="M 34.496094 50.886719 L 34.496094 716.886719 L 700.496094 716.886719 L 700.496094 50.886719 Z M 34.496094 50.886719 " fill-rule="nonzero"/></g></g><path fill="#ffffff" d="M 185.03125 380.511719 C 282.101562 337.945312 346.992188 310.433594 379.691406 296.9375 C 472.09375 258.523438 491.300781 251.773438 503.757812 251.257812 C 506.351562 251.257812 512.582031 251.773438 516.734375 254.890625 C 519.847656 257.484375 520.886719 261.117188 521.40625 263.714844 C 521.925781 266.308594 522.445312 272.019531 521.925781 276.691406 C 516.734375 329.121094 495.453125 457.335938 484.03125 515.996094 C 479.359375 540.910156 470.015625 549.21875 461.191406 550.253906 C 441.984375 551.8125 426.929688 537.277344 408.242188 525.339844 C 379.175781 506.132812 362.5625 494.191406 334.011719 475.503906 C 301.308594 453.703125 322.59375 441.765625 341.28125 422.558594 C 345.953125 417.367188 431.601562 340.019531 433.160156 332.753906 C 433.160156 331.714844 433.679688 328.601562 431.601562 327.042969 C 429.527344 325.488281 426.929688 326.003906 424.855469 326.523438 C 421.738281 327.042969 375.019531 358.191406 284.179688 419.441406 C 270.683594 428.785156 258.742188 432.941406 247.84375 432.941406 C 235.902344 432.941406 213.0625 426.191406 195.933594 420.480469 C 175.167969 413.734375 158.558594 410.097656 160.117188 398.679688 C 161.152344 392.96875 169.460938 386.738281 185.03125 380.511719 Z M 185.03125 380.511719 " fill-opacity="1" fill-rule="evenodd"/></svg>